<svg xmlns="http://www.w3.org/2000/svg" xml:space="preserve" width="88" height="40" viewBox="0 0 122 54">
      <title>bKash Logo</title>
      <g fill="currentColor">
        <path d="m82.9 25.9 3.3 14.6 21.5-10.7zM89 3.8 83.2 25l24 3.8zM62.8.6l25.5 3.1-6 21.8zM62.5 4.8h3l8 10.3zM108.4 29.6l-7.5-10.3 12-2.3zM107.2 32.5l.7-2.2-18.7 9.6zM82.4 26.3 86.3 44l-11.6 9.4zM111.8 22.3h7l-5.1-5.1z"></path>
      </g>
      <path fill="currentColor" d="M5.4 21.2h15.2v2.2H5.2v17.8s-.7-.1-1.1-.1c-.4 0-.9.1-.9.1V21.1c0-5.2 2-8.2 7-8.5 4.5-.3 8 2.3 10.4 3.6v2.6l-.3.1c-.4-1-5.8-5.5-9.3-5.1-3.6.4-5.8 2.9-5.8 6.2 0 0 0 .9.2 1.2z"></path>
      <path fill="currentColor" d="M36.6 24.9c3.8-.1 5.7 1.2 5.8 4.1.1 1.6-.6 3.1-1.7 4.4l-1.9.1v-.3c.7-.2 2.3-1.3 2.2-3.3s-1.6-3.6-4-3.5c0 0-.4 0-.6.1l.2-1.6z"></path>
      <path fill="currentColor" d="M18.5 23h2.1v18.2l-2.1-.7z"></path>
      <path fill="currentColor" d="M57.3 25.5c-.8-2.7-3.1-4.3-4.8-4.3H48v2.2h3c1.3 0 2.6-.1 3.8 1 .5.5.7 1 .9 1.7.4 1.7-.4 3.8-2.4 3.8-.6 0-1.3 0-1.9-.2v.1c.5.6.8 1.4 1.2 2.1 1.2-.2 2.4-.9 3.2-1.7 1.1-1.3 1.8-2.9 1.5-4.7"></path>
      <path fill="currentColor" d="M60.6 21.5c-1.3.2-3.3 1.3-4 4.1-.2 1.8.3 3.4 1.5 4.6.7.8 1.8 1.5 2.8 1.7.3-.7.7-1.4 1.1-2.1l-.1-.1c-.5.2-1.1.2-1.7.2-2.1-.1-2.4-2.2-2.1-3.8.3-1.4 1.5-2.8 2.8-2.9 1.4-.1 3.1 1 3.4 2.5.2.8.2 1.6.2 2.4v13.2s.6-.1 1-.1 1 .1 1 .1V21.4h-2.2v2.2c0-.1.1-.1 0-.3-.7-1.3-2.5-2-3.7-1.8M47.6 21.2v20s-.6-.1-1-.1-1 .1-1 .1V23.4H21.1v-2.2h26.5z"></path>
      <path fill="currentColor" d="M20.6 41.2h-.3c-7.8 0-12.2-4.3-12.2-8.6 0-3.6 3.3-7.8 10.9-7.8l1.3 1c-5.3 0-9.6 3.4-9.6 6.8 0 3 3.8 7.8 9.9 7.8v.8z"></path>
      <path fill="currentColor" d="M34.8 23h2.1v18.2l-2.1-.7z"></path>
      <path fill="currentColor" d="M36.9 41.2h-.3c-7.8 0-12.2-4.3-12.2-8.6 0-3.6 3.3-7.8 10.9-7.8l1.3 1c-5.3 0-9.6 3.4-9.6 6.8 0 3 3.8 7.8 9.9 7.8v.8z"></path>
    </svg>